<?xml version="1.0" encoding="UTF-8"?>
<svg id="Layer_2" data-name="Layer 2" xmlns="http://www.w3.org/2000/svg" viewBox="0 0 1821.89 120.72">
  <defs>
    <style>
      .cls-1 {
        fill: none;
        stroke: #000;
        stroke-miterlimit: 10;
      }
    </style>
  </defs>
  <g id="Layer_1-2" data-name="Layer 1">
    <g>
      <path class="cls-1" d="m.5,87.36c0-23.43,23.72-35.43,42.72-35.57,2,0,3.57,1.57,3.57,3.57s-1.57,3.57-3.57,3.57c-16.86.14-35.57,9.71-35.57,28.43,0,16,12.29,25.72,32,25.72,24.86,0,40.29-12.86,55.72-39.86l5.71-9.86c-1.71.14-3.43.14-5,.14-23.72,0-40.43-10.72-40.43-28.43,0-13.29,12.57-26.29,34.15-26.43,2,0,3.57,1.57,3.57,3.57s-1.57,3.57-3.57,3.57c-18,.14-27,9.43-27,19.29,0,13.43,12.29,21.29,33.29,21.29,3,0,6-.29,9.29-.57l12.57-22.14c8.57-15.14,17.29-25.15,31.15-25.29,10.57-.14,16.29,7.57,16.29,16,0,19.14-30.15,33.72-55.58,38l-8.14,14.29c-16.29,28.43-34.29,43.58-62,43.58C16.79,120.22.5,107.22.5,87.36ZM158.23,24.36c0-5.57-2.57-9-9.14-8.86-10.43.14-16.86,7.43-24.86,21.57l-9.71,17.14c21.43-4.71,43.72-16.43,43.72-29.86Z"/>
      <path class="cls-1" d="m137.66,102.79c0-22.43,28.86-53.43,50.72-53.43,10.43,0,16.43,7.14,16.43,17.14,0,8.71-4.43,18.86-11.29,28,16.14-.71,21.14-4,29.29-11.29l18.57-16.86c.71-.57,1.43-.86,2.43-.86,2,0,3.57,1.57,3.57,3.57,0,1-.43,2-1.14,2.71l-18.57,16.57c-9.86,9-16.86,13.29-40.29,13.43-9.86,10.43-22.43,18.14-33.29,18.14s-16.43-7.14-16.43-17.14Zm60-36.29c0-6.86-2.57-10-9.29-10-18.29,0-43.58,27.29-43.58,46.29,0,6.86,2.57,10,9.29,10,18.29,0,43.57-27.43,43.57-46.29Z"/>
      <path class="cls-1" d="m241.52,91.65l13.14-19h-10.86c-2,0-3.57-1.57-3.57-3.57s1.57-3.57,3.57-3.57h15.72l32-46.72c9.29-13.43,16.43-18.29,25.57-18.29,8.14,0,13.71,5.71,13.71,13.29,0,10.43-10.14,20-24.14,27-.57.29-1.14.43-1.71.43-2,0-3.57-1.57-3.57-3.57,0-1.43.86-2.71,2-3.29,12.86-6.43,20.29-13.57,20.29-20.57,0-4.14-1.86-6.14-6.57-6.14-6.57,0-11.29,3.14-19.57,15.14l-50,72.86c-6.57,9.57-3.71,17.43,5.29,17.43,10.57,0,19-6,36.57-21.57l28.15-25.14c.71-.57,1.57-.86,2.43-.86,2,0,3.57,1.57,3.57,3.57,0,1-.43,2-1.14,2.71l-28.15,25.14c-18,15.86-28.43,23.29-41.43,23.29-14.43,0-20.43-15-11.29-28.57Z"/>
      <path class="cls-1" d="m341.68,109.51c-8.14,6.29-17,10.43-25,10.43-10.43,0-16.43-7.14-16.43-17.14,0-22.43,28.86-53.43,50.72-53.43,10.43,0,16.43,7.14,16.43,17.14v2.14l12.14-16c.71-.86,1.71-1.43,2.86-1.43,2,0,3.57,1.57,3.57,3.57,0,.86-.29,1.57-.71,2.14l-33.86,44.29c-4.57,6-4.14,11.86,1.57,11.86,4.43,0,9.14-1.71,15.86-7.57l43.57-39.15c.71-.57,1.57-.86,2.43-.86,2,0,3.57,1.57,3.57,3.57,0,1-.43,2-1.14,2.71l-43.86,39.15c-7.71,6.86-14.57,9.29-20.43,9.29-7.43,0-11-4.86-11.29-10.72Zm7.14-16.86l2.14-2.57c5.57-7.71,9.29-16.29,9.29-23.57,0-6.86-2.57-10-9.29-10-18.29,0-43.58,27.29-43.58,46.29,0,6.86,2.57,10,9.29,10,10.57,0,23.29-8.86,32.14-20.14Z"/>
      <path class="cls-1" d="m425.97,88.65l12.71-14.57c-5.43-2.71-9-7.29-10.14-12.57l-11.29,10.29c-.71.57-1.57.86-2.43.86-2,0-3.57-1.57-3.57-3.57,0-1,.43-2,1.14-2.71l15.86-14c1.57-1.57,3.14-1.57,5-.29l.43.29c1.71,1.29,2,2.71,1.71,4.86-.86,5,2,9.57,8.14,11.29l6.14-7c7.57-8.86,13.14-12.43,19.43-12.43,5,0,9,3.57,9,8.43,0,9-10.43,18.86-28.57,18.86-1.14,0-2.14,0-3.29-.14l-14.86,17c-9.43,10.86-5.86,19.86,6.71,19.86,11,0,19.86-5.86,35.15-19.72l30.14-27c.71-.57,1.43-.86,2.43-.86,2,0,3.57,1.57,3.57,3.57,0,1-.43,2-1.14,2.71l-30.15,27c-15.86,14.14-26.72,21.43-40,21.43-18.14,0-25-16.86-12.14-31.57Zm45-31.15c0-1.14-.14-1.29-1.86-1.29-4,0-7.43,2.14-14,9.86l-2.57,3c12.57-.71,18.43-6.57,18.43-11.57Z"/>
      <path class="cls-1" d="m546.55,87.08c0-23.43,23.57-35.15,42.72-35.29,2,0,3.57,1.57,3.57,3.57s-1.57,3.57-3.57,3.57c-16.86.14-35.57,9.43-35.57,28.15,0,16.14,10.71,26,30.29,26,22.72,0,39-12.72,56-45.29l7.43-14.29c5.86-11.29,12.29-21,19.43-28.57l-7.71-3.14c-12.57-4.86-22.43-7.86-32.29-7.86-13.29,0-24.29,3.86-34.29,10.43-.57.29-1.29.57-2,.57-2,0-3.57-1.57-3.57-3.57,0-1.29.57-2.43,1.57-3h.14c10.86-7.14,23.57-11.57,38.15-11.57,11,0,22,3.29,34.86,8.43l10.72,4.29c10-8.71,21.14-13.43,34.29-13.43s21.29,6.29,21.29,14.57c0,8.86-9.43,14.71-22.29,14.71-11.43,0-21.86-3.86-31.86-7.71-7.14,7.29-13.72,17-20.14,29.29l-7.43,14.29c-17.72,34-36.86,49-62.29,49-22.86,0-37.43-13.29-37.43-33.15Zm174.3-66.43c0-4.43-3.71-7.43-14.14-7.43s-18.86,3.14-26.72,9.14c8.43,3.29,16.72,5.86,25.72,5.86,10.14,0,15.14-3.14,15.14-7.57Z"/>
      <path class="cls-1" d="m699.28,72.08c-.86-.57-1.57-1.71-1.57-3,0-1.14.43-2.14,1.29-2.71,15.43-12.72,24.57-17,35-17,8.57,0,15.86,4.29,15.86,12.86,0,11.29-16.71,23.14-44.57,14.43l-.29-.14c-19.86,19.43-13.86,36.57,2.71,36.57,11,0,24-6.14,36.29-17.14l33.29-29.57c.71-.57,1.57-.86,2.43-.86,2,0,3.57,1.57,3.57,3.57,0,1-.43,2-1.14,2.71l-33.29,29.57c-13.29,11.72-28.29,18.86-41.15,18.86-21.86,0-31.57-24.72-8.43-48.15Zm43.43-9.86c0-4.14-2.57-5.71-8.71-5.71-8.14,0-15,2.86-27.57,13l.86.29c23.86,7.43,35.43-.71,35.43-7.57Z"/>
      <path class="cls-1" d="m790.86,88.65l12.71-14.57c-5.43-2.71-9-7.29-10.14-12.57l-11.29,10.29c-.71.57-1.57.86-2.43.86-2,0-3.57-1.57-3.57-3.57,0-1,.43-2,1.14-2.71l15.86-14c1.57-1.57,3.14-1.57,5-.29l.43.29c1.71,1.29,2,2.71,1.71,4.86-.86,5,2,9.57,8.14,11.29l6.14-7c7.57-8.86,13.14-12.43,19.43-12.43,5,0,9,3.57,9,8.43,0,9-10.43,18.86-28.57,18.86-1.14,0-2.14,0-3.29-.14l-14.86,17c-9.43,10.86-5.86,19.86,6.71,19.86,11,0,19.86-5.86,35.15-19.72l30.14-27c.71-.57,1.43-.86,2.43-.86,2,0,3.57,1.57,3.57,3.57,0,1-.43,2-1.14,2.71l-30.15,27c-15.86,14.14-26.72,21.43-40,21.43-18.14,0-25-16.86-12.14-31.57Zm45-31.15c0-1.14-.14-1.29-1.86-1.29-4,0-7.43,2.14-14,9.86l-2.57,3c12.57-.71,18.43-6.57,18.43-11.57Z"/>
      <path class="cls-1" d="m944.73,95.36l18.57-20.57c10.86-12.14,8.14-18.29-.43-18.29-9.29,0-18.14,5.86-38.29,25.86l-22.43,34.15v.14c-.57.86-1.71,1.57-3,1.57-2,0-3.57-1.57-3.57-3.57,0-.71.29-1.43.57-2l24.57-37.43c9.14-13.86,7.71-18.72-.57-18.72-7.71,0-15.14,4.57-38.29,25.86l-26.29,34.43c-.71.86-1.71,1.43-2.86,1.43-2,0-3.57-1.57-3.57-3.57v-.29c.14-.86.71-1.86.71-1.86l39.57-51.72q2.71-3.71,2-3.71c-2.29,0-4.71,1.86-7.29,4.29l-11,10.29c-.57.71-1.43,1-2.43,1-2,0-3.57-1.57-3.57-3.57,0-1,.43-2,1.14-2.57l11-10.29c2.86-2.71,7.14-6.29,12.14-6.29,4.57,0,8.14,3.43,6.86,8.86,9.57-7.14,15.57-9.43,21.86-9.43,9.57,0,14.72,5.71,13,15.14,12.57-11,20.86-15.14,29.72-15.14,13.43,0,20.72,13.57,5.57,30.29l-18.57,20.57c-6.71,7.43-6,12.86,2.14,12.86,5.57,0,10.72-2,22.14-12.29l38.43-34.43c.71-.57,1.57-.86,2.43-.86,2,0,3.57,1.57,3.57,3.57,0,1-.43,2-1.14,2.71l-38.43,34.43c-12.71,11.29-20,14-27,14-14.14,0-17.57-13.43-7.29-24.86Z"/>
      <path class="cls-1" d="m1072.89,80.36c0-18.29,10.57-34.72,25.43-47.15-4.71-4-9.43-8.71-13.72-14.43-.43-.57-.71-1.29-.71-2.14,0-2,1.57-3.57,3.57-3.57,1.14,0,2.14.57,2.86,1.43,4.29,5.71,9,10.43,13.71,14.29,17.43-12.57,39-20.14,56.58-20.14,15.14,0,22.43,6.86,22.43,16.43,0,20.43-43.29,36.72-79.01,12.43-14,11.29-24,26.29-24,42.86,0,19.86,12.14,32.72,35.72,32.72,20.14,0,39.15-11.57,47.29-35.86.43-1.57,1.86-2.57,3.43-2.57,2,0,3.57,1.57,3.57,3.57,0,.43-.14.86-.14,1.29-9.14,27-31.72,40.72-54.15,40.72-27.15,0-42.86-16.72-42.86-39.86Zm103.01-55.29c0-6.14-3.71-9.29-15.29-9.29-15.86,0-35,6.57-50.72,17.29,31.14,20,66,6.57,66-8Z"/>
      <path class="cls-1" d="m1218.47,109.51c-8.14,6.29-17,10.43-25,10.43-10.43,0-16.43-7.14-16.43-17.14,0-22.43,28.86-53.43,50.72-53.43,10.43,0,16.43,7.14,16.43,17.14v2.14l12.14-16c.71-.86,1.71-1.43,2.86-1.43,2,0,3.57,1.57,3.57,3.57,0,.86-.29,1.57-.71,2.14l-33.86,44.29c-4.57,6-4.14,11.86,1.57,11.86,4.43,0,9.14-1.71,15.86-7.57l43.57-39.15c.71-.57,1.57-.86,2.43-.86,2,0,3.57,1.57,3.57,3.57,0,1-.43,2-1.14,2.71l-43.86,39.15c-7.71,6.86-14.57,9.29-20.43,9.29-7.43,0-11-4.86-11.29-10.72Zm7.14-16.86l2.14-2.57c5.57-7.71,9.29-16.29,9.29-23.57,0-6.86-2.57-10-9.29-10-18.29,0-43.58,27.29-43.58,46.29,0,6.86,2.57,10,9.29,10,10.57,0,23.29-8.86,32.14-20.14Z"/>
      <path class="cls-1" d="m1289.34,91.65l13.14-19h-10.86c-2,0-3.57-1.57-3.57-3.57s1.57-3.57,3.57-3.57h15.72l32-46.72c9.29-13.43,16.43-18.29,25.57-18.29,8.14,0,13.71,5.71,13.71,13.29,0,10.43-10.14,20-24.14,27-.57.29-1.14.43-1.71.43-2,0-3.57-1.57-3.57-3.57,0-1.43.86-2.71,2-3.29,12.86-6.43,20.29-13.57,20.29-20.57,0-4.14-1.86-6.14-6.57-6.14-6.57,0-11.29,3.14-19.57,15.14l-50,72.86c-6.57,9.57-3.71,17.43,5.29,17.43,10.57,0,19-6,36.57-21.57l28.15-25.14c.71-.57,1.57-.86,2.43-.86,2,0,3.57,1.57,3.57,3.57,0,1-.43,2-1.14,2.71l-28.15,25.14c-18,15.86-28.43,23.29-41.43,23.29-14.43,0-20.43-15-11.29-28.57Z"/>
      <path class="cls-1" d="m1365.77,72.08c-.86-.57-1.57-1.71-1.57-3,0-1.14.43-2.14,1.29-2.71,15.43-12.72,24.57-17,35-17,8.57,0,15.86,4.29,15.86,12.86,0,11.29-16.71,23.14-44.57,14.43l-.29-.14c-19.86,19.43-13.86,36.57,2.71,36.57,11,0,24-6.14,36.29-17.14l33.29-29.57c.71-.57,1.57-.86,2.43-.86,2,0,3.57,1.57,3.57,3.57,0,1-.43,2-1.14,2.71l-33.29,29.57c-13.29,11.72-28.29,18.86-41.15,18.86-21.86,0-31.57-24.72-8.43-48.15Zm43.43-9.86c0-4.14-2.57-5.71-8.71-5.71-8.14,0-15,2.86-27.57,13l.86.29c23.86,7.43,35.43-.71,35.43-7.57Z"/>
      <path class="cls-1" d="m1481.07,96.08l19.43-21.29c10.29-11.43,8-18.29-.57-18.29-9.71,0-18.72,4.43-41.72,25.72l-26.43,34.57c-.71.86-1.71,1.43-2.86,1.43-2,0-3.57-1.57-3.57-3.57,0-.86.29-1.57.71-2.14l39.57-51.72q2.86-3.71,1.86-3.71c-2.29,0-4.71,2-7.29,4.43l-11.57,10.29c-.71.57-1.57.86-2.43.86-2,0-3.57-1.57-3.57-3.57,0-1,.43-2,1.14-2.71l11.57-10.29c2.86-2.43,7.14-6.14,12.14-6.14s8.57,3.57,7,9.29c10.57-7.57,17.86-9.86,25.43-9.86,13.86,0,20.14,14.43,5.71,30.29l-19.43,21.29c-5.86,6.43-4.57,12.14,3.14,12.14,5.86,0,10.71-2.71,21.29-12.29l38.43-34.43c.71-.57,1.43-.86,2.43-.86,2,0,3.57,1.57,3.57,3.57,0,1-.43,2-1.14,2.71l-38.43,34.43c-11.29,10-18.14,14-26.14,14-13.71,0-17.72-13.86-8.29-24.15Z"/>
      <path class="cls-1" d="m1573.22,109.51c-8,6.29-17,10.43-25,10.43-10.43,0-16.43-7.14-16.43-17.14,0-22.43,28.86-53.43,50.72-53.43,10.43,0,16.43,7.14,16.43,17.14v2.14l49.43-64.72c.71-.86,1.71-1.43,2.86-1.43,2,0,3.57,1.57,3.57,3.57v.29c-.14.86-.71,1.86-.71,1.86l-71.15,93.01c-4.57,6-4.14,11.86,2.86,11.86,5.14,0,10-1.57,16.43-7.57l43.72-39.15c.71-.57,1.57-.86,2.43-.86,2,0,3.57,1.57,3.57,3.57,0,1-.43,2-1.14,2.71l-43.72,39.15c-7.71,7-14.86,9.29-21.29,9.29-7.86,0-12-4.86-12.57-10.72Zm7.29-16.86l1.86-2.43c5.71-7.86,9.43-16.43,9.43-23.72,0-6.86-2.57-10-9.29-10-18.29,0-43.58,27.29-43.58,46.29,0,6.86,2.57,10,9.29,10,10.57,0,23.29-9,32.29-20.14Z"/>
      <path class="cls-1" d="m1646.37,72.08c-.86-.57-1.57-1.71-1.57-3,0-1.14.43-2.14,1.29-2.71,15.43-12.72,24.57-17,35-17,8.57,0,15.86,4.29,15.86,12.86,0,11.29-16.71,23.14-44.57,14.43l-.29-.14c-19.86,19.43-13.86,36.57,2.71,36.57,11,0,24-6.14,36.29-17.14l33.29-29.57c.71-.57,1.57-.86,2.43-.86,2,0,3.57,1.57,3.57,3.57,0,1-.43,2-1.14,2.71l-33.29,29.57c-13.29,11.72-28.29,18.86-41.15,18.86-21.86,0-31.57-24.72-8.43-48.15Zm43.43-9.86c0-4.14-2.57-5.71-8.71-5.71-8.14,0-15,2.86-27.57,13l.86.29c23.86,7.43,35.43-.71,35.43-7.57Z"/>
      <path class="cls-1" d="m1737.96,88.65l12.71-14.57c-5.43-2.71-9-7.29-10.14-12.57l-11.29,10.29c-.71.57-1.57.86-2.43.86-2,0-3.57-1.57-3.57-3.57,0-1,.43-2,1.14-2.71l15.86-14c1.57-1.57,3.14-1.57,5-.29l.43.29c1.71,1.29,2,2.71,1.71,4.86-.86,5,2,9.57,8.14,11.29l6.14-7c7.57-8.86,13.14-12.43,19.43-12.43,5,0,9,3.57,9,8.43,0,9-10.43,18.86-28.57,18.86-1.14,0-2.14,0-3.29-.14l-14.86,17c-9.43,10.86-5.86,19.86,6.71,19.86,11,0,19.86-5.86,35.15-19.72l30.14-27c.71-.57,1.43-.86,2.43-.86,2,0,3.57,1.57,3.57,3.57,0,1-.43,2-1.14,2.71l-30.15,27c-15.86,14.14-26.72,21.43-40,21.43-18.14,0-25-16.86-12.14-31.57Zm45-31.15c0-1.14-.14-1.29-1.86-1.29-4,0-7.43,2.14-14,9.86l-2.57,3c12.57-.71,18.43-6.57,18.43-11.57Z"/>
    </g>
  </g>
</svg>